<?xml version="1.0" encoding="UTF-8"?>
<!DOCTYPE svg PUBLIC "-//W3C//DTD SVG 1.1//EN" "http://www.w3.org/Graphics/SVG/1.1/DTD/svg11.dtd">
<!-- Creator: CorelDRAW (Versão de avaliação) -->
<svg xmlns="http://www.w3.org/2000/svg" xml:space="preserve" version="1.1" style="shape-rendering:geometricPrecision; text-rendering:geometricPrecision; image-rendering:optimizeQuality; fill-rule:evenodd; clip-rule:evenodd"
viewBox="0 7500 29700 6000"
 xmlns:xlink="http://www.w3.org/1999/xlink"
 xmlns:xodm="http://www.corel.com/coreldraw/odm/2003">
 <defs>
  <style type="text/css">
   <![CDATA[
    .fil1 {fill:#3A459D}
    .fil0 {fill:#515151}
   ]]>
  </style>
 </defs>
 <g id="Camada_x0020_1">
  <metadata id="CorelCorpID_0Corel-Layer"/>
  <g id="_638767400">
   <path class="fil0" d="M2824.41 9506.8c537.44,0 1024.49,178.11 1379.66,466.7l-454.26 436.33 2.36 2.44c-225.48,-231.21 -557.5,-377.33 -927.78,-377.33 -679.25,0 -1229.9,491.75 -1229.9,1098.35 0,606.61 550.65,1098.36 1229.9,1098.36 374.97,0 710.68,-149.91 936.27,-386.21l455.71 437.7c-356.19,294.48 -848.33,476.64 -1391.96,476.64 -1086.98,0 -1968.13,-728.21 -1968.13,-1626.5 0,-898.28 881.15,-1626.48 1968.13,-1626.48z"/>
   <path class="fil0" d="M6350.15 9506.8c1225.89,-54.63 1760.23,755.69 1779.52,1624.88 0,0 2.69,196.07 2.69,196.07l-328.42 0 -384.5 0 -2230.16 0c98.56,513.85 655.91,903.9 1160.87,903.9 504.97,0 867.37,-74.37 1176.79,-379.72l397.62 373.52c-345.75,373.6 -1019.02,512 -1645.11,512 -798.16,0 -1846.89,-523.12 -1816.43,-1604.17 28.37,-1006.86 661.25,-1571.86 1887.13,-1626.48zm1061.91 1397.11c-113.28,-496.48 -495.09,-868.97 -1061.91,-868.97 -566.81,0 -1040.18,372.49 -1153.46,868.97l2215.37 0z"/>
   <path class="fil0" d="M8791.64 9591.56l764.84 0 0 514.5c89.22,-207 333.13,-569.25 1292.56,-606.56 1524.65,0 1471.19,1421.29 1471.19,1421.29l0 1743.38 -764.84 0 0 -1786.46c0,-250.15 -137.83,-818.31 -1016.44,-818.31 -878.62,0 -982.47,826.93 -982.47,826.93l0 1777.84 -764.84 0 0 -3072.61z"/>
   <path class="fil0" d="M16050.08 9591.56l764.84 0 0 514.5c89.22,-207 333.14,-569.25 1292.56,-606.56 17.47,0 34.5,0.39 51.54,0.76l0 597.81c-103.81,-24.63 -223.57,-38.67 -361.63,-38.67 -878.61,0 -982.47,826.93 -982.47,826.93l0 1777.84 -764.84 0 0 -3072.61z"/>
   <path class="fil0" d="M15396.66 12558.95l-161.9 -447.58c0,0 -849.88,442.8 -996.32,-261.9l0 -1762.54 1047.18 0 0 -495.37 -1047.18 0 0 -914.16 -764.84 0 0 914.16 -696.34 0 0 495.37 696.34 0 0 1795.88c0,0 80.49,910.76 1110.01,852.48 684,-38.72 813.05,-176.34 813.05,-176.34z"/>
   <rect class="fil0" x="18881.04" y="9591.56" width="764.84" height="3072.6"/>
   <path class="fil0" d="M23441.54 9573.77l764.84 0 0 3072.6 -764.84 0 0 -448.06c0,0 -286.66,560.46 -1320.24,560.46 -1033.57,0 -1821.28,-698.3 -1821.28,-1603.18l0 -42.94c0,-904.87 787.71,-1603.17 1821.28,-1603.17 1033.58,0 1320.24,560.46 1320.24,560.46l0 -496.17zm0 1738.14l0 -355.57c0,-198.01 -188.46,-871.12 -1221.91,-898.7 -1033.45,-27.58 -1143.7,922.07 -1143.7,1076.49 0,154.42 110.25,1104.05 1143.7,1076.47 1033.45,-27.57 1221.91,-700.68 1221.91,-898.69z"/>
   <ellipse class="fil0" cx="19263.46" cy="8658.02" rx="466.21" ry="403.53"/>
   <polygon class="fil1" points="24799.77,9569.53 25709.05,9569.53 26821.2,10681.67 27933.34,9569.53 28842.64,9569.53 27287.11,11125.06 28842.66,12680.6 27933.35,12680.6 26821.2,11568.43 25709.04,12680.6 24799.75,12680.6 26355.28,11125.06 "/>
  </g>
 </g>
</svg>
